<?xml version="1.0" encoding="UTF-8"?>
<svg width="51px" height="11px" viewBox="0 0 51 11" version="1.1" xmlns="http://www.w3.org/2000/svg" xmlns:xlink="http://www.w3.org/1999/xlink">
    <!-- Generator: Sketch 50.2 (55047) - http://www.bohemiancoding.com/sketch -->
    <title>alpha-new-new</title>
    <desc>Created with Sketch.</desc>
    <defs></defs>
    <g id="Symbols" stroke="none" stroke-width="1" fill="none" fill-rule="evenodd">
        <g id="TopBar" transform="translate(-10.000000, -54.000000)">
            <g id="alpha-new-new" transform="translate(10.000000, 54.000000)">
                <g id="alpha-new" fill="#0081FF">
                    <g id="icon-alpha">
                        <g id="Group-2">
                            <rect id="Rectangle" x="0" y="0" width="51" height="11" rx="5.5"></rect>
                        </g>
                    </g>
                </g>
                <path d="M13.9545898,7.53515625 L11.3862305,7.53515625 L10.8979492,9 L9.34033203,9 L11.9868164,1.890625 L13.3442383,1.890625 L16.0053711,9 L14.4477539,9 L13.9545898,7.53515625 Z M11.7817383,6.34863281 L13.559082,6.34863281 L12.6655273,3.6875 L11.7817383,6.34863281 Z M18.1342773,7.82324219 L21.2446289,7.82324219 L21.2446289,9 L16.6694336,9 L16.6694336,1.890625 L18.1342773,1.890625 L18.1342773,7.82324219 Z M23.5493164,6.49511719 L23.5493164,9 L22.0844727,9 L22.0844727,1.890625 L24.8579102,1.890625 C25.391767,1.890625 25.8613261,1.98828027 26.2666016,2.18359375 C26.671877,2.37890723 26.9835601,2.65641096 27.2016602,3.01611328 C27.4197602,3.3758156 27.5288086,3.78515396 27.5288086,4.24414062 C27.5288086,4.94075869 27.290367,5.4900696 26.8134766,5.89208984 C26.3365862,6.29411008 25.6765993,6.49511719 24.8334961,6.49511719 L23.5493164,6.49511719 Z M23.5493164,5.30859375 L24.8579102,5.30859375 C25.2452819,5.30859375 25.5406891,5.21744883 25.7441406,5.03515625 C25.9475922,4.85286367 26.0493164,4.59244961 26.0493164,4.25390625 C26.0493164,3.90559722 25.9467784,3.62402451 25.7416992,3.40917969 C25.5366201,3.19433486 25.2534198,3.08365889 24.8920898,3.07714844 L23.5493164,3.07714844 L23.5493164,5.30859375 Z M34.3208008,9 L32.855957,9 L32.855957,5.953125 L29.9995117,5.953125 L29.9995117,9 L28.534668,9 L28.534668,1.890625 L29.9995117,1.890625 L29.9995117,4.77148438 L32.855957,4.77148438 L32.855957,1.890625 L34.3208008,1.890625 L34.3208008,9 Z M39.6137695,7.53515625 L37.0454102,7.53515625 L36.5571289,9 L34.9995117,9 L37.6459961,1.890625 L39.003418,1.890625 L41.6645508,9 L40.1069336,9 L39.6137695,7.53515625 Z M37.440918,6.34863281 L39.2182617,6.34863281 L38.324707,3.6875 L37.440918,6.34863281 Z" id="ALPHA" fill="#FFFFFF"></path>
            </g>
        </g>
    </g>
</svg>