<?xml version="1.0" encoding="UTF-8"?>
<svg width="24px" height="16px" viewBox="0 0 24 16" version="1.1" xmlns="http://www.w3.org/2000/svg" xmlns:xlink="http://www.w3.org/1999/xlink">
    <!-- Generator: Sketch 48.2 (47327) - http://www.bohemiancoding.com/sketch -->
    <title>icon-dashboard</title>
    <desc>Created with Sketch.</desc>
    <defs></defs>
    <g id="App-/-Market-Detail-Large-Chart" stroke="none" stroke-width="1" fill="none" fill-rule="evenodd" transform="translate(-96.000000, -31.000000)">
        <g id="icon-dashboard" transform="translate(96.000000, 31.000000)" fill="#FFFFFF" fill-rule="nonzero">
            <g id="Group-15">
                <path d="M12,15.403 C10.427,15.403 9.146,14.123 9.146,12.55 C9.146,10.977 10.426,9.697 12,9.697 C13.574,9.697 14.854,10.977 14.854,12.55 C14.854,14.123 13.573,15.403 12,15.403 Z M12,10.997 C11.144,10.997 10.447,11.694 10.447,12.55 C10.447,13.406 11.143,14.103 12,14.103 C12.857,14.103 13.553,13.406 13.553,12.55 C13.553,11.694 12.856,10.997 12,10.997 Z" id="Shape"></path>
                <path d="M23.303,13.2 L14.202,13.2 C13.843,13.2 13.552,12.909 13.552,12.55 C13.552,12.191 13.843,11.9 14.202,11.9 L22.633,11.9 C22.296,6.327 17.656,1.897 12,1.897 C6.345,1.897 1.704,6.328 1.367,11.9 L9.797,11.9 C10.156,11.9 10.447,12.191 10.447,12.55 C10.447,12.909 10.156,13.2 9.797,13.2 L0.697,13.2 C0.338,13.2 0.047,12.909 0.047,12.55 C0.046,5.959 5.409,0.597 12,0.597 C18.591,0.597 23.954,5.959 23.954,12.55 C23.954,12.909 23.663,13.2 23.303,13.2 Z" id="Shape"></path>
                <path d="M13.117,11.311 C13.005,11.311 12.89,11.282 12.787,11.221 C12.478,11.038 12.376,10.639 12.558,10.33 L14.784,6.568 C14.967,6.26 15.367,6.155 15.675,6.339 C15.984,6.522 16.086,6.921 15.904,7.23 L13.678,10.992 C13.556,11.197 13.339,11.311 13.117,11.311 Z" id="Shape"></path>
                <path d="M21.414,13.2 L20.634,13.2 C20.275,13.2 19.984,12.909 19.984,12.55 C19.984,12.191 20.275,11.9 20.634,11.9 L21.414,11.9 C21.773,11.9 22.064,12.191 22.064,12.55 C22.064,12.909 21.773,13.2 21.414,13.2 Z" id="Shape"></path>
                <path d="M3.366,13.2 L2.586,13.2 C2.227,13.2 1.936,12.909 1.936,12.55 C1.936,12.191 2.227,11.9 2.586,11.9 L3.365,11.9 C3.724,11.9 4.015,12.191 4.015,12.55 C4.015,12.909 3.725,13.2 3.366,13.2 Z" id="Shape"></path>
            </g>
            <g id="Group-16" transform="translate(3.000000, 2.000000)">
                <path d="M8.5,2 C8.22384615,2 8,1.72019231 8,1.375 L8,0.625 C8,0.279807692 8.22384615,0 8.5,0 C8.77615385,0 9,0.279807692 9,0.625 L9,1.375 C9,1.72019231 8.77615385,2 8.5,2 Z" id="Shape"></path>
                <path d="M3.29767669,5 C3.11831433,5 2.93787147,4.93191949 2.80064846,4.79467783 L2.20529507,4.19924355 C1.93084904,3.92367959 1.93192954,3.47953532 2.20637557,3.20505201 C2.48082159,2.93164933 2.92490552,2.93164933 3.19935154,3.20505201 L3.79470493,3.80048629 C4.06915096,4.07496961 4.06807046,4.52019452 3.79362443,4.79359719 C3.65640142,4.93083885 3.47703906,5 3.29767669,5 Z" id="Shape"></path>
                <path d="M14.7023233,5 C14.5229609,5 14.3435986,4.9318965 14.2063756,4.79460849 C13.9319295,4.52003248 13.930849,4.07465721 14.2052951,3.8011622 L14.8006485,3.20552683 C15.0750945,2.93095082 15.5191784,2.93203183 15.7936244,3.20552683 C16.0680705,3.48010285 16.069151,3.92547812 15.7947049,4.19897312 L15.1993515,4.79460849 C15.0621285,4.93081549 14.8816857,5 14.7023233,5 Z" id="Shape"></path>
                <path d="M6.184752,3 C5.86348287,3 5.5585282,2.8486378 5.42926757,2.59933534 L5.06031006,1.88506403 C4.8908908,1.55661794 5.09042904,1.18068567 5.5083299,1.04713079 C5.92121092,0.914565199 6.40060469,1.07087388 6.57002395,1.40030926 L6.93898146,2.11458058 C7.10965568,2.44302666 6.91011744,2.81895893 6.49221659,2.95251382 C6.39181999,2.98516057 6.28765851,3 6.184752,3 Z" id="Shape"></path>
                <path d="M1.35597773,8 C1.27280074,8 1.18863354,7.97879474 1.10644675,7.93638422 L0.394491287,7.559679 C0.0667343219,7.3862948 -0.0867470363,6.91104749 0.0499008826,6.49816859 C0.187539004,6.08404232 0.561835477,5.88945287 0.893553252,6.06408442 L1.60550871,6.44078965 C1.93326568,6.61417384 2.08674704,7.08942115 1.95009912,7.50230006 C1.84612787,7.81289476 1.60649892,8 1.35597773,8 Z" id="Shape"></path>
                <path d="M12.8115785,3 C12.7067612,3 12.5994483,2.98315842 12.4971267,2.94947525 C12.0840967,2.81177055 11.8906839,2.43432097 12.0628837,2.10640545 L12.4397267,1.39509627 C12.6131744,1.06718075 13.0898434,0.911643784 13.5028733,1.05132985 C13.9159033,1.18903455 14.1093161,1.56648413 13.9371163,1.89439965 L13.5602733,2.60570884 C13.4292517,2.8513978 13.1285259,3 12.8115785,3 Z" id="Shape"></path>
                <path d="M16.6434704,8 C16.3902899,8 16.1499662,7.80832735 16.0481006,7.49388397 C15.9135985,7.07671408 16.0708473,6.60191712 16.3991908,6.43154143 L17.1132389,6.06197651 C17.4425714,5.88909529 17.8183862,6.09079004 17.9518994,6.50670717 C18.0864015,6.92387706 17.9291527,7.39867403 17.6008092,7.56904972 L16.8867611,7.93861464 C16.8066532,7.98120856 16.7245673,8 16.6434704,8 Z" id="Shape"></path>
            </g>
        </g>
    </g>
</svg>