<?xml version="1.0" encoding="UTF-8"?>
<svg width="16px" height="16px" viewBox="0 0 16 16" version="1.1" xmlns="http://www.w3.org/2000/svg" xmlns:xlink="http://www.w3.org/1999/xlink">
    <!-- Generator: Sketch 50.2 (55047) - http://www.bohemiancoding.com/sketch -->
    <title>icon-exchanges-green</title>
    <desc>Created with Sketch.</desc>
    <defs></defs>
    <g id="Version-1" stroke="none" stroke-width="1" fill="none" fill-rule="evenodd">
        <g id="Settings-/-Exchanges" transform="translate(-61.000000, -352.000000)" fill="#FFFFFF" fill-rule="nonzero">
            <g id="icon-exchanges" transform="translate(61.000000, 352.000000)">
                <path d="M0.983578947,10.5026667 C0.766947368,10.5022857 0.582315789,10.4331429 0.429052632,10.2942857 C0.275578947,10.1558095 0.198947368,9.98838095 0.198947368,9.79238095 C0.198947368,9.59638095 0.275578947,9.42895238 0.429052632,9.29028571 C0.582315789,9.15161905 0.766947368,9.08228571 0.983578947,9.08228571 L15.0431579,9.08228571 C15.2597895,9.08228571 15.4446316,9.15161905 15.5981053,9.29028571 C15.7511579,9.42895238 15.828,9.59619048 15.828,9.79238095 C15.828,9.98819048 15.7511579,10.1558095 15.5981053,10.2942857 L9.70863158,15.6230476 C9.55536842,15.7617143 9.37031579,15.8310476 9.15368421,15.8310476 C8.93684211,15.8310476 8.752,15.7617143 8.59873684,15.6230476 C8.44526316,15.4841905 8.36884211,15.3167619 8.36884211,15.1207619 C8.36884211,14.9245714 8.44526316,14.7575238 8.59873684,14.6188571 L13.1488421,10.5026667 L0.983578947,10.5026667 Z" id="Shape"></path>
                <path d="M6.11894737,0.208 C6.27221053,0.0691428571 6.45684211,0 6.67389474,0 C6.89073684,0 7.07515789,0.0693333333 7.22863158,0.208 C7.38168421,0.346666667 7.45810526,0.513904762 7.45852632,0.709904762 C7.45810526,0.905904762 7.38168421,1.07333333 7.22863158,1.21180952 L2.67894737,5.32838095 L14.8581053,5.32838095 C15.0745263,5.32838095 15.2597895,5.39790476 15.4130526,5.53657143 C15.5661053,5.6752381 15.6429474,5.84266667 15.6429474,6.03847619 C15.6429474,6.23466667 15.5661053,6.40190476 15.4130526,6.54057143 C15.2597895,6.6792381 15.0747368,6.74838095 14.8581053,6.74857143 L0.784842105,6.74857143 C0.567789474,6.74838095 0.382736842,6.6792381 0.229684211,6.54057143 C0.0762105263,6.40190476 0,6.23466667 0,6.03847619 C0,5.84266667 0.0764210526,5.6752381 0.229684211,5.53657143 L6.11894737,0.208 Z" id="Shape"></path>
            </g>
        </g>
    </g>
</svg>