<?xml version="1.0" encoding="UTF-8"?>
<svg width="16px" height="17px" viewBox="0 0 16 17" version="1.1" xmlns="http://www.w3.org/2000/svg" xmlns:xlink="http://www.w3.org/1999/xlink">
    <!-- Generator: Sketch 50.2 (55047) - http://www.bohemiancoding.com/sketch -->
    <title>icon-personal-data</title>
    <desc>Created with Sketch.</desc>
    <defs></defs>
    <g id="Version-1" stroke="none" stroke-width="1" fill="none" fill-rule="evenodd">
        <g id="Settings-/-Exchanges" transform="translate(-62.000000, -196.000000)" fill="#FFFFFF">
            <g id="icon-personal-data" transform="translate(62.000000, 196.000000)">
                <g id="Group-11">
                    <path d="M8,10 C5.24296134,10 3,7.75695071 3,4.99980393 C3,2.24304929 5.24296134,0 8,0 C10.7570387,0 13,2.24304929 13,4.99980393 C13,7.75695071 10.7570387,10 8,10 Z M8,1.35877024 C5.99231433,1.35877024 4.35871696,2.99243167 4.35871696,4.99980393 C4.35871696,7.00756833 5.99231433,8.64122976 8,8.64122976 C10.0076857,8.64122976 11.641283,7.00756833 11.641283,4.99980393 C11.641283,2.99203953 10.0076857,1.35877024 8,1.35877024 Z" id="Shape" fill-rule="nonzero"></path>
                    <path d="M0.625562251,17 C0.55516188,17 0.483678427,16.9888926 0.414000111,16.964995 C0.0890753227,16.8562773 -0.0798855674,16.522383 0.0370873565,16.2191181 C1.24111421,13.0976102 4.44126235,11 8.00027187,11 C11.5589204,11 14.7587075,13.0972736 15.9630954,16.2191181 C16.0797072,16.5220464 15.9107464,16.8562773 15.5861826,16.964995 C15.2612578,17.0740491 14.9023964,16.9165264 14.7854235,16.6135981 C13.7593832,13.9538876 11.0329032,12.166274 8.00027187,12.166274 C4.96764051,12.166274 2.24043845,13.9538876 1.21439817,16.6135981 C1.12233615,16.8515651 0.881891807,17 0.625562251,17 Z" id="Shape" fill-rule="nonzero"></path>
                </g>
            </g>
        </g>
    </g>
</svg>