<?xml version="1.0" encoding="UTF-8"?>
<svg width="17px" height="17px" viewBox="0 0 17 17" version="1.1" xmlns="http://www.w3.org/2000/svg" xmlns:xlink="http://www.w3.org/1999/xlink">
    <!-- Generator: Sketch 50.2 (55047) - http://www.bohemiancoding.com/sketch -->
    <title>icon-referral</title>
    <desc>Created with Sketch.</desc>
    <defs></defs>
    <g id="Version-1" stroke="none" stroke-width="1" fill="none" fill-rule="evenodd">
        <g id="Settings-/-Exchanges" transform="translate(-60.000000, -456.000000)" fill="#FFFFFF" fill-rule="nonzero">
            <g id="Shape" transform="translate(60.000000, 456.000000)">
                <path d="M12.1564875,9.208475 C12.4629125,10.2299625 13.3996125,10.979025 14.5207625,10.979025 C15.890325,10.979025 17,9.8695625 17,8.5 C17,7.131075 15.890325,6.0207625 14.5207625,6.0207625 C13.3996125,6.0207625 12.46355,6.7704625 12.1564875,7.791525 L8.43625,7.791525 C8.3657,7.3743875 8.2358625,6.9787125 8.0531125,6.61215 L11.1063125,4.394075 C11.533225,4.7413 12.0697875,4.9582625 12.6626625,4.9582625 C14.032225,4.9582625 15.1419,3.8485875 15.1419,2.479025 C15.1421125,1.1103125 14.0324375,0 12.662875,0 C11.29395,0 10.1836375,1.1103125 10.1836375,2.4792375 C10.1836375,2.7397625 10.23485,2.98605 10.30965,3.221925 L7.2216,5.46465 C6.455325,4.7141 5.4079125,4.25 4.25,4.25 C1.9029375,4.25 0,6.1529375 0,8.5 C0,10.8479125 1.9029375,12.75 4.25,12.75 C5.4079125,12.75 6.4559625,12.2859 7.2222375,11.5351375 L10.3094375,13.778075 C10.2346375,14.0137375 10.183425,14.260025 10.183425,14.520975 C10.1836375,15.8905375 11.2937375,17 12.662875,17 C14.0324375,17 15.1421125,15.8905375 15.1421125,14.520975 C15.1421125,13.1518375 14.0324375,12.041525 12.662875,12.041525 C12.07,12.041525 11.5325875,12.2589125 11.106525,12.605925 L8.0531125,10.3876375 C8.23565,10.021925 8.3657,9.6256125 8.43625,9.208475 L12.1564875,9.208475 Z M14.5207625,7.4375 C15.1068375,7.4375 15.5832625,7.9141375 15.5832625,8.5 C15.5832625,9.086075 15.1068375,9.5625 14.5207625,9.5625 C13.9349,9.5625 13.4582625,9.086075 13.4582625,8.5 C13.4582625,7.9141375 13.9349,7.4375 14.5207625,7.4375 Z M12.662875,1.4167375 C13.2487375,1.4167375 13.725375,1.893375 13.725375,2.4792375 C13.725375,3.0651 13.2487375,3.5417375 12.662875,3.5417375 C12.0770125,3.5417375 11.600375,3.0651 11.600375,2.4792375 C11.600375,1.893375 12.0770125,1.4167375 12.662875,1.4167375 Z M4.25,11.333475 C2.6879125,11.333475 1.4167375,10.062725 1.4167375,8.5 C1.4167375,6.938125 2.6879125,5.6667375 4.25,5.6667375 C5.8120875,5.6667375 7.0832625,6.938125 7.0832625,8.5 C7.0832625,10.062725 5.8120875,11.333475 4.25,11.333475 Z M12.662875,13.458475 C13.2487375,13.458475 13.725375,13.9349 13.725375,14.520975 C13.725375,15.106625 13.2487375,15.583475 12.662875,15.583475 C12.0770125,15.583475 11.600375,15.106625 11.600375,14.520975 C11.600375,13.9349 12.0770125,13.458475 12.662875,13.458475 Z"></path>
            </g>
        </g>
    </g>
</svg>