<?xml version="1.0" encoding="UTF-8"?>
<svg width="17px" height="17px" viewBox="0 0 17 17" version="1.1" xmlns="http://www.w3.org/2000/svg" xmlns:xlink="http://www.w3.org/1999/xlink">
    <!-- Generator: Sketch 50.2 (55047) - http://www.bohemiancoding.com/sketch -->
    <title>icon-security</title>
    <desc>Created with Sketch.</desc>
    <defs></defs>
    <g id="Version-1" stroke="none" stroke-width="1" fill="none" fill-rule="evenodd">
        <g id="Settings-/-Exchanges" transform="translate(-60.000000, -403.000000)" fill="#FFFFFF">
            <g id="icon-security" transform="translate(60.000000, 403.000000)">
                <path d="M0,16.46875 L0,13.8125 C0,13.5190988 0.237848594,13.28125 0.53125,13.28125 C0.824651406,13.28125 1.0625,13.5190988 1.0625,13.8125 L1.0625,15.9375 L3.1875,15.9375 C3.48090141,15.9375 3.71875,16.1753488 3.71875,16.46875 C3.71875,16.7621512 3.48090141,17 3.1875,17 L0.53125,17 C0.237848594,17 0,16.7621512 0,16.46875 Z M16.46875,17 L13.8125,17 C13.5190986,17 13.28125,16.7621512 13.28125,16.46875 C13.28125,16.1753488 13.5190986,15.9375 13.8125,15.9375 L15.9375,15.9375 L15.9375,13.8125 C15.9375,13.5190988 16.1753486,13.28125 16.46875,13.28125 C16.7621514,13.28125 17,13.5190988 17,13.8125 L17,16.46875 C17,16.7621512 16.7621514,17 16.46875,17 Z M17,0.53125 L17,3.1875 C17,3.48090125 16.7621514,3.71875 16.46875,3.71875 C16.1753486,3.71875 15.9375,3.48090125 15.9375,3.1875 L15.9375,1.0625 L13.8125,1.0625 C13.5190986,1.0625 13.28125,0.824651273 13.28125,0.53125 C13.28125,0.237848727 13.5190986,0 13.8125,0 L16.46875,0 C16.7621514,0 17,0.237848727 17,0.53125 Z M0.53125,0 L3.1875,0 C3.48090141,0 3.71875,0.237848727 3.71875,0.53125 C3.71875,0.824651273 3.48090141,1.0625 3.1875,1.0625 L1.0625,1.0625 L1.0625,3.1875 C1.0625,3.48090125 0.824651406,3.71875 0.53125,3.71875 C0.237848594,3.71875 0,3.48090125 0,3.1875 L0,0.53125 C0,0.237848727 0.237848594,0 0.53125,0 Z M3.71875,3.1875 L13.28125,3.1875 C13.5746514,3.1875 13.8125,3.42534875 13.8125,3.71875 L13.8125,13.28125 C13.8125,13.5746512 13.5746514,13.8125 13.28125,13.8125 L3.71875,13.8125 C3.42534859,13.8125 3.1875,13.5746512 3.1875,13.28125 L3.1875,3.71875 C3.1875,3.42534875 3.42534859,3.1875 3.71875,3.1875 Z M4.25,4.25 L4.25,12.75 L12.75,12.75 L12.75,4.25 L4.25,4.25 Z M5.3125,5.3125 L11.6875,5.3125 L11.6875,11.6875 L5.3125,11.6875 L5.3125,5.3125 Z" id="Shape"></path>
            </g>
        </g>
    </g>
</svg>