<?xml version="1.0" encoding="UTF-8"?>
<svg width="18px" height="18px" viewBox="0 0 18 18" version="1.1" xmlns="http://www.w3.org/2000/svg" xmlns:xlink="http://www.w3.org/1999/xlink">
    <!-- Generator: Sketch 50.2 (55047) - http://www.bohemiancoding.com/sketch -->
    <title>icon-account-settings</title>
    <desc>Created with Sketch.</desc>
    <defs></defs>
    <g id="Version-1" stroke="none" stroke-width="1" fill="none" fill-rule="evenodd">
        <g id="Settings-/-Exchanges" transform="translate(-60.000000, -248.000000)" fill="#FFFFFF">
            <g id="icon-account-settings" transform="translate(60.000000, 248.000000)">
                <path d="M9,11.8032787 C7.45377049,11.8032787 6.19672131,10.5462295 6.19672131,9 C6.19672131,7.45377049 7.45377049,6.19672131 9,6.19672131 C10.5462295,6.19672131 11.8032787,7.45377049 11.8032787,9 C11.8032787,10.5462295 10.5462295,11.8032787 9,11.8032787 M17.8170492,10.8118033 C17.9374426,10.224 18,9.61377049 18,9 C18,4.03672131 13.9620984,0 9,0 C4.03790164,0 0,4.03672131 0,9 C0,13.9632787 4.03790164,18 9,18 C10.0622951,18 11.1033443,17.8170492 12.092459,17.4546885 C12.2777705,17.3862295 12.4264918,17.2516721 12.5102951,17.0722623 C12.592918,16.8940328 12.6011803,16.693377 12.5339016,16.5080656 C12.3981639,16.1362623 11.962623,15.9285246 11.5872787,16.0689836 C10.7598689,16.3711475 9.88878689,16.5245902 9,16.5245902 C4.84996721,16.5245902 1.47540984,13.1488525 1.47540984,9 C1.47540984,4.85114754 4.84996721,1.47540984 9,1.47540984 C13.1500328,1.47540984 16.5245902,4.85114754 16.5245902,9 C16.5245902,9.51934426 16.4726557,10.0221639 16.3664262,10.5356066 C16.2082623,11.2839344 15.5354754,11.8257049 14.7682623,11.8257049 C14.6620328,11.8257049 14.554623,11.815082 14.4495738,11.7950164 C14.0234754,11.7053115 13.6575738,11.4562623 13.4191475,11.0939016 C13.183082,10.7303607 13.100459,10.2983607 13.1878033,9.87462295 C13.248,9.58662295 13.2786885,9.29272131 13.2786885,9 C13.2786885,6.64052459 11.3594754,4.72131148 9,4.72131148 C6.64052459,4.72131148 4.72131148,6.64052459 4.72131148,9 C4.72131148,11.3594754 6.64052459,13.2786885 9,13.2786885 C10.0268852,13.2786885 11.0301639,12.891541 11.8233443,12.1880656 L12.157377,11.8918033 L12.4512787,12.229377 C12.9045246,12.7534426 13.4899672,13.1016393 14.1438689,13.2361967 C14.3516066,13.2810492 14.5652459,13.3034754 14.7788852,13.3034754 C16.2365902,13.3034754 17.5137049,12.2553443 17.8170492,10.8118033" id="Page-1"></path>
            </g>
        </g>
    </g>
</svg>