<?xml version="1.0" encoding="UTF-8"?>
<svg width="20px" height="20px" viewBox="0 0 20 20" version="1.1" xmlns="http://www.w3.org/2000/svg" xmlns:xlink="http://www.w3.org/1999/xlink">
    <!-- Generator: Sketch 50.2 (55047) - http://www.bohemiancoding.com/sketch -->
    <title>icon-subscription</title>
    <desc>Created with Sketch.</desc>
    <defs></defs>
    <g id="Version-1" stroke="none" stroke-width="1" fill="none" fill-rule="evenodd">
        <g id="Settings-/-Exchanges" transform="translate(-59.000000, -297.000000)" fill="#FFFFFF" stroke="#FFFFFF">
            <g id="icon-subscription" transform="translate(60.000000, 298.000000)">
                <g id="Group-12">
                    <path d="M9,18 C13.9655172,18 18,13.9655172 18,9 C18,4.03448276 13.9655172,0 9,0 C4.03448276,0 0,4.03448276 0,9 C0,13.9655172 4.03448276,18 9,18 Z M16.8916256,9 C16.8916256,13.3448276 13.3448276,16.8916256 9,16.8916256 C4.65517241,16.8916256 1.10837438,13.3448276 1.10837438,9 C1.10837438,4.65517241 4.65517241,1.10837438 9,1.10837438 C13.3448276,1.10837438 16.8916256,4.65517241 16.8916256,9 Z" id="Shape" stroke-width="0.3" fill-rule="nonzero"></path>
                    <path d="M7.20982028,13.9625169 C7.26366944,13.9812585 7.31751861,14 7.37136778,14 C7.55086501,14 7.73036224,13.8875507 7.78421141,13.7001353 C7.87396002,13.4564952 7.74831196,13.1941135 7.51496556,13.1004058 C5.43279771,12.2757777 4.37376406,9.83937671 5.14560215,7.66535733 C5.52254633,6.61583074 6.27643469,5.77246115 7.24571972,5.30392249 C8.23295448,4.83538383 9.32788757,4.79790074 10.3330721,5.19147321 C11.3921057,5.60378723 12.2357427,6.44715682 12.666536,7.53416651 L11.4100554,7.51542496 L13.1511785,10.7951956 L15,7.59039115 L13.6358211,7.5716496 C13.1691283,6.07232589 12.0921449,4.89160847 10.6561671,4.32936208 C9.41763619,3.84208188 8.07140697,3.89830651 6.88672526,4.47929445 C5.68409383,5.06028239 4.76865797,6.07232589 4.31991489,7.36549259 C3.35062986,9.98930908 4.66095963,12.969215 7.20982028,13.9625169 Z" id="Shape" stroke-width="0.3" fill-rule="nonzero"></path>
                </g>
            </g>
        </g>
    </g>
</svg>