<?xml version="1.0" encoding="UTF-8"?>
<svg width="17px" height="17px" viewBox="0 0 17 17" version="1.1" xmlns="http://www.w3.org/2000/svg" xmlns:xlink="http://www.w3.org/1999/xlink">
    <!-- Generator: Sketch 50.2 (55047) - http://www.bohemiancoding.com/sketch -->
    <title>icon-overview</title>
    <desc>Created with Sketch.</desc>
    <defs></defs>
    <g id="Version-1" stroke="none" stroke-width="1" fill="none" fill-rule="evenodd">
        <g id="Settings-/-Exchanges" transform="translate(-62.000000, -143.000000)" fill="#FFFFFF" fill-rule="nonzero">
            <g id="icon-overview" transform="translate(62.000000, 143.000000)">
                <path d="M15.6399827,1.48152308 C15.9644273,1.48152308 16.2244591,1.7622728 16.2244591,2.1046 C16.2244591,2.4469272 15.9644273,2.72767692 15.6399827,2.72767692 L6.72949183,2.72767692 C6.40504718,2.72767692 6.14501538,2.4469272 6.14501538,2.1046 C6.14501538,1.7622728 6.40504718,1.48152308 6.72949183,1.48152308 L15.6399827,1.48152308 Z" id="Shape" stroke="#FFFFFF" stroke-width="0.2"></path>
                <path d="M4.85938462,0.534323077 C4.85938462,0.245584615 4.62504615,0.0112461538 4.33630769,0.0112461538 L0.697523077,0.0112461538 C0.408784615,0.0112461538 0.174446154,0.245584615 0.174446154,0.534323077 L0.174446154,4.17310769 C0.174446154,4.46184615 0.408784615,4.69618462 0.697523077,4.69618462 L4.33630769,4.69618462 C4.62504615,4.69618462 4.85938462,4.46184615 4.85938462,4.17310769 L4.85938462,0.534323077 Z M3.81323077,3.65003077 L1.2206,3.65003077 L1.2206,1.0574 L3.81323077,1.0574 L3.81323077,3.65003077 Z" id="Shape"></path>
                <path d="M15.6399827,7.75766154 C15.9644273,7.75766154 16.2244591,8.03841126 16.2244591,8.38073846 C16.2244591,8.72306566 15.9644273,9.00381538 15.6399827,9.00381538 L6.72949183,9.00381538 C6.40504718,9.00381538 6.14501538,8.72306566 6.14501538,8.38073846 C6.14501538,8.03841126 6.40504718,7.75766154 6.72949183,7.75766154 L15.6399827,7.75766154 Z" id="Shape" stroke="#FFFFFF" stroke-width="0.2"></path>
                <path d="M15.6399827,14.0351077 C15.9644273,14.0351077 16.2244591,14.3158574 16.2244591,14.6581846 C16.2244591,15.0005118 15.9644273,15.2812615 15.6399827,15.2812615 L6.72949183,15.2812615 C6.40504718,15.2812615 6.14501538,15.0005118 6.14501538,14.6581846 C6.14501538,14.3158574 6.40504718,14.0351077 6.72949183,14.0351077 L15.6399827,14.0351077 Z" id="Shape" stroke="#FFFFFF" stroke-width="0.2"></path>
                <path d="M4.33630769,12.0642462 L0.697523077,12.0642462 C0.408784615,12.0642462 0.174446154,12.2985846 0.174446154,12.5873231 L0.174446154,16.2266308 C0.174446154,16.5153692 0.408784615,16.7497077 0.697523077,16.7497077 L4.33630769,16.7497077 C4.62504615,16.7497077 4.85938462,16.5153692 4.85938462,16.2266308 L4.85938462,12.5873231 C4.85938462,12.2983231 4.62504615,12.0642462 4.33630769,12.0642462 Z M3.81323077,15.7035538 L1.2206,15.7035538 L1.2206,13.1104 L3.81323077,13.1104 L3.81323077,15.7035538 Z" id="Shape"></path>
                <path d="M4.85938462,6.56069231 C4.85938462,6.27195385 4.62504615,6.03761538 4.33630769,6.03761538 L0.697523077,6.03761538 C0.408784615,6.03761538 0.174446154,6.27195385 0.174446154,6.56069231 L0.174446154,10.1997385 C0.174446154,10.4884769 0.408784615,10.7228154 0.697523077,10.7228154 L4.33630769,10.7228154 C4.62504615,10.7228154 4.85938462,10.4884769 4.85938462,10.1997385 L4.85938462,6.56069231 Z M3.81323077,9.67666154 L1.2206,9.67666154 L1.2206,7.08376923 L3.81323077,7.08376923 L3.81323077,9.67666154 Z" id="Shape"></path>
            </g>
        </g>
    </g>
</svg>