<svg xmlns="http://www.w3.org/2000/svg" width="80" height="81" viewBox="0 0 80 81">
    <path fill="#08B689" fill-rule="nonzero" d="M76 26.5V10.9c2.3-.7 4-2.8 4-5.3 0-3-2.5-5.5-5.5-5.5S69 2.6 69 5.6c0 2.5 1.7 4.6 4 5.3v15.2h-.4C68.5 10 56.1 0 40 0S11.5 9.9 7.4 26.1H6c-3.3 0-6 2.7-6 6v12c0 3.3 2.7 6 6 6h1.9c1.6 4.5 4.1 8.5 7.5 11.8l-2.7 2.7c-.7.7-.8 1.8-.2 2.6 6.1 8.2 16.1 13 27.4 13 11.3 0 21.3-4.699 27.4-13 .601-.8.5-1.899-.2-2.6l-2.7-2.7c3.3-3.2 5.899-7.3 7.5-11.8H74c3.3 0 6-2.7 6-6v-12c0-2.6-1.7-4.8-4-5.6zm1 13.6h-4c0-.7.1-1.4.1-2.2 0-3.1-.3-6-.8-8.8H74c1.7 0 3 1.3 3 3v8zm-3 7h-2.1c.399-1.6.699-3.3.899-5H77v2c0 1.7-1.3 3-3 3zm-34 30c-10 0-18.9-4-24.5-11.1l2.8-2.801c5.6 4.4 13 6.9 21.7 6.9s16.1-2.5 21.7-6.9L64.5 66C58.9 73.1 50 77.1 40 77.1zm-34-48h1.8c-.5 2.8-.8 5.8-.8 8.8 0 .7 0 1.4.1 2.2h-4v-8c-.1-1.7 1.2-3 2.9-3zm34-12c14.9 0 27 10.9 27 24.3 0 14.5-13.6 21-27 21s-27-6.5-27-21C13 28 25.1 17.1 40 17.1zm0-2c-3.5 0-6.9.6-10 1.6V4.6c3.1-1 6.4-1.5 10-1.5 3.6 0 6.9.5 10 1.5v12.2c-3.1-1.1-6.5-1.7-10-1.7zM28 5.3v12.2c-10 4.1-17 13.3-17 23.9 0 13.7 11.7 23 29 23s29-9.2 29-23c0-10.6-7-19.8-17-23.9V5.3C63.7 10 71 22 71 38c0 18-12.4 30.1-31 30.1S9 56 9 37.9C9 22 16.3 10 28 5.3zM3 42.1h4.2c.2 1.7.5 3.4.9 5H6c-1.7 0-3-1.3-3-3v-2zM72 5.6c0-1.4 1.1-2.5 2.5-2.5S77 4.2 77 5.6s-1.1 2.5-2.5 2.5S72 7 72 5.6z"/>
</svg>
