<svg xmlns="http://www.w3.org/2000/svg" width="16" height="16" viewBox="0 0 16 16">
    <g fill="none" fill-rule="evenodd">
        <circle cx="8" cy="8" r="8" fill="#243C5E"/>
        <path fill="#FFF" d="M7.394 9.749c0-.431.052-.774.157-1.03.104-.255.296-.506.574-.754.278-.248.464-.45.556-.605a.948.948 0 0 0 .139-.491c0-.52-.24-.78-.72-.78a.73.73 0 0 0-.547.21c-.137.14-.209.333-.215.58H6c.006-.588.196-1.048.57-1.38C6.944 5.165 7.454 5 8.1 5c.652 0 1.158.158 1.518.473.36.315.54.76.54 1.336 0 .261-.059.508-.176.74-.116.233-.321.49-.613.774l-.374.355a1.266 1.266 0 0 0-.402.789l-.018.282H7.394zm-.134 1.416c0-.206.07-.376.21-.51.14-.134.319-.2.537-.2.219 0 .398.066.538.2s.21.304.21.51a.67.67 0 0 1-.205.503.747.747 0 0 1-.543.199.747.747 0 0 1-.542-.199.67.67 0 0 1-.205-.503z"/>
    </g>
</svg>
