<svg xmlns="http://www.w3.org/2000/svg" width="203" height="27" viewBox="0 0 203 27">
    <defs>
        <linearGradient id="a" x1="0%" x2="55.84%" y1="50%" y2="50%">
            <stop offset="0%" stop-color="#C1C1C1"/>
            <stop offset="100%" stop-color="#FFF"/>
        </linearGradient>
    </defs>
    <g fill="none" fill-rule="evenodd">
        <path fill="#FFF" d="M80 18.884C80 19.51 79.627 20 78.94 20c-.55 0-1.001-.372-1.06-.862L76.486 8.37c-.02-.117-.079-.176-.177-.176-.098 0-.157.059-.176.157l-2.239 9.849c-.255 1.116-.961 1.723-1.904 1.723-.942 0-1.63-.607-1.884-1.723l-2.258-9.83c-.059-.235-.295-.235-.354 0L66.12 19.14c-.059.489-.51.861-1.06.861-.687 0-1.06-.49-1.06-1.116 0-.098 0-.176.02-.235l1.55-10.75C65.748 6.646 66.534 6 67.574 6s1.845.607 2.1 1.801l2.16 9.673c.02.118.098.176.196.176.099 0 .158-.058.177-.176l2.12-9.673C74.582 6.607 75.347 6 76.388 6c1.08 0 1.845.646 2.022 1.9l1.57 10.749c.02.059.02.137.02.235zm3.074-4.337a16.27 16.27 0 0 1 0-3.094c.118-1.547.727-2.843 1.847-3.887S87.398 6 88.991 6c1.591 0 2.967.522 4.088 1.586 1.12 1.044 1.749 2.34 1.847 3.867a16.27 16.27 0 0 1 0 3.094c-.098 1.547-.727 2.843-1.847 3.887S90.582 20 88.99 20c-1.592 0-2.948-.522-4.069-1.547-1.12-1.044-1.73-2.34-1.847-3.906zm9.865-.17c.081-.924.081-1.85 0-2.755-.101-1.06-.506-1.926-1.255-2.6C90.954 8.346 90.064 8 88.99 8c-1.074 0-1.965.347-2.694 1.021-.729.675-1.134 1.542-1.235 2.601-.081.906-.081 1.83 0 2.756.101 1.06.506 1.926 1.215 2.6.73.675 1.64 1.022 2.714 1.022 1.073 0 1.985-.347 2.714-1.021.729-.675 1.134-1.542 1.235-2.601zm5.135.17a16.27 16.27 0 0 1 0-3.094c.118-1.547.727-2.843 1.847-3.887S102.398 6 103.991 6c1.591 0 2.967.522 4.088 1.586 1.12 1.044 1.749 2.34 1.847 3.867a16.27 16.27 0 0 1 0 3.094c-.098 1.547-.727 2.843-1.847 3.887S105.582 20 103.99 20c-1.592 0-2.948-.522-4.069-1.547-1.12-1.044-1.73-2.34-1.847-3.906zm9.865-.17c.081-.924.081-1.85 0-2.755-.101-1.06-.506-1.926-1.255-2.6-.73-.675-1.62-1.022-2.694-1.022-1.074 0-1.965.347-2.694 1.021-.729.675-1.134 1.542-1.235 2.601-.081.906-.081 1.83 0 2.756.101 1.06.506 1.926 1.215 2.6.73.675 1.64 1.022 2.714 1.022 1.073 0 1.985-.347 2.714-1.021.729-.675 1.134-1.542 1.235-2.601zm8.233-7.41l5.857 10.288h.038c0-.158-.02-.434-.038-.81-.019-.77-.038-1.54-.038-2.27V7.086c0-.612.47-1.086 1.014-1.086s.995.474.995 1.086v11.176c0 .968-.638 1.738-1.558 1.738-.676 0-1.183-.296-1.54-.908L114.99 8.666h-.057c0 .177 0 .474.02.888.056.81.056 1.6.056 2.29v7.07c0 .612-.432 1.086-1.014 1.086-.544 0-.995-.513-.995-1.086V7.797c0-1.007.638-1.777 1.596-1.777.694 0 1.22.316 1.576.948zM145 18.906c0 .567-.396 1.095-.998 1.095-.471 0-.773-.235-.942-.684l-1.244-3.657h-5.651l-1.243 3.676c-.17.45-.471.665-.942.665-.603 0-.98-.489-.98-1.056 0-.137.019-.274.057-.39l3.767-10.872C137.201 6.567 137.936 6 139.01 6c1.074 0 1.79.567 2.186 1.682l3.748 10.871c.038.117.057.235.057.352zm-6.345-10.59L137 14h4l-1.638-5.685c-.052-.21-.172-.315-.345-.315-.19 0-.31.105-.362.315zm14.665 3.621c3.364.639 4.68 1.74 4.68 3.984 0 1.199-.451 2.185-1.335 2.94-.883.753-2.067 1.14-3.59 1.14-1.786 0-3.308-.464-4.549-1.412-.357-.251-.526-.56-.526-.908 0-.62.451-1.064 1.034-1.064.244 0 .489.097.733.29.996.735 2.143 1.102 3.402 1.102 1.748 0 2.8-.793 2.8-2.088 0-.542-.243-.948-.713-1.238-.47-.29-1.297-.541-2.482-.792-3.139-.62-4.473-1.74-4.473-3.926 0-1.199.432-2.166 1.297-2.881.864-.716 1.973-1.083 3.346-1.083 1.748 0 3.064.367 3.91 1.122.206.212.319.483.319.812 0 .541-.395.967-.921.967-.207 0-.451-.078-.752-.232a5.04 5.04 0 0 0-2.556-.697c-1.786 0-2.613.832-2.613 1.973 0 1.063.733 1.547 2.989 1.991zm13 0c3.364.639 4.68 1.74 4.68 3.984 0 1.199-.451 2.185-1.335 2.94-.883.753-2.067 1.14-3.59 1.14-1.786 0-3.308-.464-4.549-1.412-.357-.251-.526-.56-.526-.908 0-.62.451-1.064 1.034-1.064.244 0 .489.097.733.29.996.735 2.143 1.102 3.402 1.102 1.748 0 2.8-.793 2.8-2.088 0-.542-.243-.948-.713-1.238-.47-.29-1.297-.541-2.482-.792-3.139-.62-4.473-1.74-4.473-3.926 0-1.199.432-2.166 1.297-2.881.864-.716 1.973-1.083 3.346-1.083 1.748 0 3.064.367 3.91 1.122.206.212.319.483.319.812 0 .541-.395.967-.921.967-.207 0-.451-.078-.752-.232a5.04 5.04 0 0 0-2.556-.697c-1.786 0-2.613.832-2.613 1.973 0 1.063.733 1.547 2.989 1.991zm7.68 6.98V7.084c0-.572.463-1.085 1-1.085.574 0 1 .473 1 1.085v11.83c0 .612-.426 1.085-1 1.085-.537 0-1-.513-1-1.085zm11.32-6.98c3.364.639 4.68 1.74 4.68 3.984 0 1.199-.451 2.185-1.335 2.94-.883.753-2.067 1.14-3.59 1.14-1.786 0-3.308-.464-4.549-1.412-.357-.251-.526-.56-.526-.908 0-.62.451-1.064 1.034-1.064.244 0 .489.097.733.29.996.735 2.143 1.102 3.402 1.102 1.748 0 2.8-.793 2.8-2.088 0-.542-.243-.948-.713-1.238-.47-.29-1.297-.541-2.482-.792-3.139-.62-4.473-1.74-4.473-3.926 0-1.199.432-2.166 1.297-2.881.864-.716 1.973-1.083 3.346-1.083 1.748 0 3.064.367 3.91 1.122.206.212.319.483.319.812 0 .541-.395.967-.921.967-.207 0-.451-.078-.752-.232a5.04 5.04 0 0 0-2.556-.697c-1.786 0-2.613.832-2.613 1.973 0 1.063.733 1.547 2.989 1.991zm11.164 6.975V8.099h-3.44A1.043 1.043 0 0 1 192 7.049c0-.613.456-1.049 1.045-1.049h8.91c.589 0 1.045.436 1.045 1.05 0 .574-.494 1.049-1.045 1.049h-3.42v10.812c0 .614-.437 1.089-1.026 1.089-.55 0-1.025-.515-1.025-1.09zM40.38 6.499l8.438 16.914a2.632 2.632 0 0 1-1.256 3.307 2.602 2.602 0 0 1-3.504-1.167l-2.703-5.41H29.586l-2.703 5.41a2.608 2.608 0 0 1-2.368 1.446 2.608 2.608 0 0 1-2.398-1.446L13.529 8.365 4.942 25.553a2.602 2.602 0 0 1-3.504 1.166 2.632 2.632 0 0 1-1.16-3.524L11.145 1.447A2.608 2.608 0 0 1 13.544 0a2.608 2.608 0 0 1 2.37 1.446L24.5 18.632l8.586-17.185A2.608 2.608 0 0 1 35.486 0a2.608 2.608 0 0 1 2.37 1.446L40.378 6.5zm-8.17 8.393h6.522L35.47 8.365l-3.262 6.527z"/>
        <path fill="url(#a)" fill-rule="nonzero" d="M32.554 15h9.208C42.998 15 44 16.12 44 17.5S42.998 20 41.762 20H30l2.554-5z"/>
    </g>
</svg>
