<svg xmlns="http://www.w3.org/2000/svg" width="49" height="27" viewBox="0 0 49 27">
    <defs>
        <linearGradient id="a" x1="0%" x2="55.84%" y1="50%" y2="50%">
            <stop offset="0%" stop-color="#C1C1C1"/>
            <stop offset="100%" stop-color="#FFF"/>
        </linearGradient>
    </defs>
    <g fill="none" fill-rule="evenodd">
        <path fill="#FFF" d="M40.38 6.499l8.438 16.914a2.632 2.632 0 0 1-1.256 3.307 2.602 2.602 0 0 1-3.504-1.167l-2.703-5.41H29.586l-2.703 5.41a2.608 2.608 0 0 1-2.368 1.446 2.608 2.608 0 0 1-2.398-1.446L13.529 8.365 4.942 25.553a2.602 2.602 0 0 1-3.504 1.166 2.632 2.632 0 0 1-1.16-3.524L11.145 1.447A2.608 2.608 0 0 1 13.544 0a2.608 2.608 0 0 1 2.37 1.446L24.5 18.632l8.586-17.185A2.608 2.608 0 0 1 35.486 0a2.608 2.608 0 0 1 2.37 1.446L40.378 6.5zm-8.17 8.393h6.522L35.47 8.365l-3.262 6.527z"/>
        <path fill="url(#a)" fill-rule="nonzero" d="M32.554 15h9.208C42.998 15 44 16.12 44 17.5S42.998 20 41.762 20H30l2.554-5z"/>
    </g>
</svg>
